<?xml version="1.0" encoding="utf-8"?>
<!-- Generator: Adobe Illustrator 24.0.3, SVG Export Plug-In . SVG Version: 6.00 Build 0)  -->
<svg version="1.1" id="Layer_1" xmlns="http://www.w3.org/2000/svg" xmlns:xlink="http://www.w3.org/1999/xlink" x="0px" y="0px"
	 viewBox="0 0 300.09 193.05" style="enable-background:new 0 0 300.09 193.05;" xml:space="preserve">
<style type="text/css">
	.st0{fill:#4AE700;}
</style>
<g>
	<path class="st0" d="M80.58,0v23.63l-54.5,20.21l54.5,20.21v23.47L0,56.86V30.58L80.58,0z"/>
	<path class="st0" d="M81.26,119.18V95.55l54.5-20.21l-54.5-20.21V31.66l80.58,30.66V88.6L81.26,119.18z"/>
</g>
<g>
	<polygon class="st0" points="132.81,167.2 89.02,167.2 89.02,141.03 80.58,141.03 80.58,175.69 141.26,175.69 141.26,141.03 
		132.81,141.03 	"/>
	<rect x="146.01" y="141.03" class="st0" width="8.44" height="34.67"/>
	<rect x="146.01" y="123.4" class="st0" width="8.44" height="8.44"/>
	<rect x="159.73" y="123.4" class="st0" width="8.44" height="8.44"/>
	<rect x="159.73" y="141.03" class="st0" width="8.44" height="52.03"/>
	<path class="st0" d="M173.01,141.03v34.67h61.12v-34.67H173.01z M225.69,167.2h-44.23v-17.41h44.23V167.2z"/>
	<path class="st0" d="M239.5,141.03v34.67h60.59v-8.5h-52.14v-5.8h52.14v-20.37H239.5z M292.17,152.63h-44.23v-2.85h44.23V152.63z"
		/>
</g>
</svg>
